<svg class="qodef-svg--quote qodef-e-quote-icon" xmlns="http://www.w3.org/2000/svg" xmlns:xlink="http://www.w3.org/1999/xlink" x="0px" y="0px" viewBox="0 0 26 20" style="enable-background:new 0 0 26 20;" xml:space="preserve"><g><path d="M10.1,1.6c1.1,1,1.6,2.4,1.6,4.1c0,0.8-0.1,1.6-0.3,2.4c-0.2,0.8-0.6,2-1.3,3.5L6.6,20h-6l2.6-9.3c-1-0.4-1.8-1.1-2.4-1.9&#10;&#9;&#9;C0.3,7.9,0,6.9,0,5.6c0-1.7,0.6-3,1.7-4.1C2.8,0.5,4.2,0,5.9,0S9,0.5,10.1,1.6z M24.4,1.6C25.5,2.6,26,4,26,5.6&#10;&#9;&#9;c0,0.8-0.1,1.6-0.3,2.4c-0.2,0.8-0.6,2-1.3,3.5L20.9,20h-6l2.6-9.3c-1-0.4-1.8-1.1-2.4-1.9c-0.6-0.9-0.8-1.9-0.8-3.1&#10;&#9;&#9;c0-1.7,0.6-3,1.7-4.1c1.1-1,2.5-1.6,4.2-1.6C21.9,0,23.3,0.5,24.4,1.6z"/></g></svg>